<svg width="172" height="33" viewBox="0 0 172 33" fill="none" xmlns="http://www.w3.org/2000/svg">
<path d="M151.256 16.64C150.372 16.0569 149.398 15.6423 148.476 15.124C147.878 14.7871 147.241 14.489 146.722 14.0614C145.838 13.3358 146.02 11.9105 146.943 11.2885C148.268 10.4074 150.463 10.8997 150.697 12.7009C150.697 12.7397 150.736 12.7657 150.775 12.7657H152.776C152.828 12.7657 152.867 12.7268 152.854 12.675C152.75 11.431 152.269 10.3944 151.386 9.73355C150.541 9.09862 149.58 8.76172 148.553 8.76172C143.266 8.76172 142.785 14.3465 145.63 16.1088C145.955 16.3161 148.748 17.7155 149.736 18.3245C150.723 18.9335 151.035 20.0479 150.606 20.929C150.216 21.7324 149.203 22.2896 148.19 22.2248C147.085 22.16 146.228 21.564 145.929 20.631C145.877 20.4626 145.851 20.1386 145.851 19.9961C145.851 19.9572 145.812 19.9183 145.773 19.9183H143.604C143.565 19.9183 143.526 19.9572 143.526 19.9961C143.526 21.564 143.916 22.4321 144.981 23.2226C145.981 23.9741 147.072 24.2851 148.203 24.2851C151.165 24.2851 152.698 22.6135 153.009 20.8772C153.282 19.1797 152.776 17.6507 151.256 16.64Z" fill="#F6F6F6"/>
<path d="M57.0569 9.04688H56.0956H55.0434C55.0044 9.04688 54.9784 9.07279 54.9654 9.09871L53.1856 14.9556C53.1596 15.0334 53.0558 15.0334 53.0298 14.9556L51.25 9.09871C51.237 9.05983 51.211 9.04688 51.172 9.04688H50.1198H49.1583H47.8592C47.8202 9.04688 47.7812 9.08575 47.7812 9.12462V24.0779C47.7812 24.1167 47.8202 24.1556 47.8592 24.1556H50.0288C50.0678 24.1556 50.1068 24.1167 50.1068 24.0779V12.7139C50.1068 12.6232 50.2366 12.6103 50.2626 12.688L52.0554 18.5838L52.1852 18.9984C52.1982 19.0373 52.2242 19.0503 52.2632 19.0503H53.9262C53.9651 19.0503 53.9911 19.0243 54.0041 18.9984L54.1339 18.5838L55.9268 12.688C55.9528 12.5973 56.0826 12.6232 56.0826 12.7139V24.0779C56.0826 24.1167 56.1216 24.1556 56.1605 24.1556H58.3302C58.3691 24.1556 58.4081 24.1167 58.4081 24.0779V9.12462C58.4081 9.08575 58.3691 9.04688 58.3302 9.04688H57.0569Z" fill="#F6F6F6"/>
<path d="M118.037 9.04688C117.998 9.04688 117.972 9.07279 117.959 9.09871L116.18 14.9556C116.154 15.0334 116.05 15.0334 116.024 14.9556L114.244 9.09871C114.231 9.05983 114.205 9.04688 114.166 9.04688H110.866C110.827 9.04688 110.788 9.08575 110.788 9.12462V24.0779C110.788 24.1167 110.827 24.1556 110.866 24.1556H113.036C113.075 24.1556 113.114 24.1167 113.114 24.0779V12.7139C113.114 12.6232 113.244 12.6103 113.27 12.688L115.062 18.5838L115.192 18.9984C115.205 19.0373 115.231 19.0503 115.27 19.0503H116.933C116.972 19.0503 116.998 19.0243 117.011 18.9984L117.141 18.5838L118.934 12.688C118.96 12.5973 119.09 12.6232 119.09 12.7139V24.0779C119.09 24.1167 119.129 24.1556 119.168 24.1556H121.337C121.376 24.1556 121.415 24.1167 121.415 24.0779V9.12462C121.415 9.08575 121.376 9.04688 121.337 9.04688H118.037Z" fill="#F6F6F6"/>
<path d="M90.0541 9.04688H86.0138H83.8443H79.8041C79.7651 9.04688 79.7261 9.08575 79.7261 9.12462V10.9905C79.7261 11.0294 79.7651 11.0683 79.8041 11.0683H83.7664V24.0779C83.7664 24.1167 83.8053 24.1556 83.8443 24.1556H86.0138C86.0528 24.1556 86.0918 24.1167 86.0918 24.0779V11.0683H90.0541C90.0931 11.0683 90.132 11.0294 90.132 10.9905V9.12462C90.132 9.08575 90.1061 9.04688 90.0541 9.04688Z" fill="#F6F6F6"/>
<path d="M102.851 24.1552H104.825C104.877 24.1552 104.916 24.1034 104.903 24.0516L100.824 9.04646C100.811 9.00759 100.785 8.99463 100.746 8.99463H99.9927H98.6676H97.9141C97.8751 8.99463 97.8491 9.02055 97.8361 9.04646L93.7569 24.0516C93.7439 24.1034 93.7829 24.1552 93.8349 24.1552H95.8095C95.8485 24.1552 95.8745 24.1293 95.8875 24.1034L97.0697 19.7366C97.0826 19.6978 97.1086 19.6848 97.1476 19.6848H101.513C101.552 19.6848 101.578 19.7107 101.591 19.7366L102.773 24.1034C102.786 24.1293 102.825 24.1552 102.851 24.1552ZM97.6672 17.5468L99.2522 11.7028C99.2781 11.6251 99.3821 11.6251 99.4081 11.7028L100.993 17.5468C101.006 17.5986 100.967 17.6504 100.915 17.6504H97.7452C97.6932 17.6504 97.6543 17.5986 97.6672 17.5468Z" fill="#F6F6F6"/>
<path d="M136.524 24.1552H138.498C138.55 24.1552 138.589 24.1034 138.576 24.0516L134.497 9.04646C134.484 9.00759 134.458 8.99463 134.419 8.99463H133.666H132.341H131.587C131.548 8.99463 131.522 9.02055 131.509 9.04646L127.43 24.0516C127.417 24.1034 127.456 24.1552 127.508 24.1552H129.483C129.522 24.1552 129.548 24.1293 129.561 24.1034L130.743 19.7366C130.756 19.6978 130.782 19.6848 130.821 19.6848H135.186C135.225 19.6848 135.251 19.7107 135.264 19.7366L136.446 24.1034C136.459 24.1293 136.485 24.1552 136.524 24.1552ZM131.34 17.5468L132.925 11.7028C132.951 11.6251 133.055 11.6251 133.081 11.7028L134.666 17.5468C134.679 17.5986 134.64 17.6504 134.588 17.6504H131.418C131.366 17.6504 131.327 17.5986 131.34 17.5468Z" fill="#F6F6F6"/>
<path d="M67.216 21.9396V17.3007C67.216 17.2619 67.255 17.223 67.294 17.223H73.075C73.114 17.223 73.153 17.1841 73.153 17.1452V15.2793C73.153 15.2405 73.114 15.2016 73.075 15.2016H67.294C67.255 15.2016 67.216 15.1627 67.216 15.1238V11.1588C67.216 11.1199 67.255 11.081 67.294 11.081H73.8675C73.9065 11.081 73.9455 11.0421 73.9455 11.0033V9.13732C73.9455 9.09845 73.9065 9.05957 73.8675 9.05957H67.216H64.9686C64.9296 9.05957 64.8906 9.09845 64.8906 9.13732V11.081V15.2145V17.236V22.0303V24.0776C64.8906 24.1165 64.9296 24.1554 64.9686 24.1554H67.216H74.1403C74.1793 24.1554 74.2183 24.1165 74.2183 24.0776V22.1081C74.2183 22.0692 74.1793 22.0303 74.1403 22.0303H67.281C67.242 22.0174 67.216 21.9914 67.216 21.9396Z" fill="#F6F6F6"/>
<path d="M171.08 24.0258L163.571 16.29C163.545 16.2641 163.545 16.2123 163.571 16.1864L170.327 9.18915C170.379 9.13732 170.34 9.05957 170.275 9.05957H167.508C167.482 9.05957 167.469 9.07253 167.456 9.08549L161.727 15.0202C161.675 15.072 161.597 15.0331 161.597 14.9683V9.13732C161.597 9.09845 161.558 9.05957 161.519 9.05957H159.349C159.31 9.05957 159.271 9.09845 159.271 9.13732V24.0906C159.271 24.1295 159.31 24.1684 159.349 24.1684H161.519C161.558 24.1684 161.597 24.1295 161.597 24.0906V17.5081C161.597 17.4433 161.688 17.4044 161.727 17.4562L168.222 24.1424C168.235 24.1554 168.261 24.1684 168.274 24.1684H171.041C171.093 24.1554 171.132 24.0647 171.08 24.0258Z" fill="#F6F6F6"/>
<path d="M32.9583 1L19.8242 10.7183L22.2666 4.99099L32.9583 1Z" fill="white" stroke="white" stroke-width="0.25" stroke-linecap="round" stroke-linejoin="round"/>
<path d="M2.6626 1L15.6798 10.809L13.3544 4.99098L2.6626 1Z" fill="white" stroke="white" stroke-width="0.25" stroke-linecap="round" stroke-linejoin="round"/>
<path d="M28.229 23.5332L24.7344 28.8718L32.2173 30.9321L34.3609 23.6499L28.229 23.5332Z" fill="white" stroke="white" stroke-width="0.25" stroke-linecap="round" stroke-linejoin="round"/>
<path d="M1.27295 23.6499L3.40349 30.9321L10.8734 28.8718L7.39178 23.5332L1.27295 23.6499Z" fill="white" stroke="white" stroke-width="0.25" stroke-linecap="round" stroke-linejoin="round"/>
<path d="M10.4706 14.5149L8.39209 17.6507L15.797 17.9876L15.5502 10.0186L10.4706 14.5149Z" fill="#EEEEEE" stroke="white" stroke-width="0.25" stroke-linecap="round" stroke-linejoin="round"/>
<path d="M25.1505 14.5152L19.9931 9.92822L19.8242 17.9879L27.2291 17.651L25.1505 14.5152Z" fill="#EEEEEE" stroke="white" stroke-width="0.25" stroke-linecap="round" stroke-linejoin="round"/>
<path d="M10.8735 28.8718L15.3554 26.7079L11.4971 23.7017L10.8735 28.8718Z" fill="#EEEEEE" stroke="#EEEEEE" stroke-width="0.25" stroke-linecap="round" stroke-linejoin="round"/>
<path d="M20.2661 26.7079L24.735 28.8718L24.1244 23.7017L20.2661 26.7079Z" fill="#EEEEEE" stroke="#EEEEEE" stroke-width="0.25" stroke-linecap="round" stroke-linejoin="round"/>
<path d="M24.735 28.8724L20.2661 26.7085L20.6298 29.611L20.5908 30.842L24.735 28.8724Z" fill="#F6F6F6" stroke="#EEEEEE" stroke-width="0.25" stroke-linecap="round" stroke-linejoin="round"/>
<path d="M10.8735 28.8724L15.0307 30.842L15.0047 29.611L15.3554 26.7085L10.8735 28.8724Z" fill="#F6F6F6" stroke="#EEEEEE" stroke-width="0.25" stroke-linecap="round" stroke-linejoin="round"/>
<path d="M15.1081 21.7842L11.3926 20.6958L14.0168 19.4907L15.1081 21.7842Z" fill="#233447" stroke="#233447" stroke-width="0.25" stroke-linecap="round" stroke-linejoin="round"/>
<path d="M20.5127 21.7842L21.604 19.4907L24.2412 20.6958L20.5127 21.7842Z" fill="#233447" stroke="#233447" stroke-width="0.25" stroke-linecap="round" stroke-linejoin="round"/>
<path d="M10.8732 28.8718L11.5228 23.5332L7.3916 23.6499L10.8732 28.8718Z" fill="#EEEEEE" stroke="#EEEEEE" stroke-width="0.25" stroke-linecap="round" stroke-linejoin="round"/>
<path d="M24.0981 23.5332L24.7347 28.8718L28.2293 23.6499L24.0981 23.5332Z" fill="#EEEEEE" stroke="#EEEEEE" stroke-width="0.25" stroke-linecap="round" stroke-linejoin="round"/>
<path d="M27.2291 17.6504L19.8242 17.9873L20.5127 21.784L21.604 19.4904L24.2412 20.6955L27.2291 17.6504Z" fill="#EEEEEE" stroke="#EEEEEE" stroke-width="0.25" stroke-linecap="round" stroke-linejoin="round"/>
<path d="M11.393 20.6955L14.0172 19.4904L15.1085 21.784L15.797 17.9873L8.39209 17.6504L11.393 20.6955Z" fill="#EEEEEE" stroke="#EEEEEE" stroke-width="0.25" stroke-linecap="round" stroke-linejoin="round"/>
<path d="M8.39209 17.6504L11.497 23.7017L11.393 20.6955L8.39209 17.6504Z" fill="#C4C4C4" stroke="#EEEEEE" stroke-width="0.25" stroke-linecap="round" stroke-linejoin="round"/>
<path d="M24.2414 20.6955L24.1245 23.7017L27.2294 17.6504L24.2414 20.6955Z" fill="#C4C4C4" stroke="#EEEEEE" stroke-width="0.25" stroke-linecap="round" stroke-linejoin="round"/>
<path d="M15.797 17.9873L15.1084 21.784L15.9788 26.2673L16.1737 20.3586L15.797 17.9873Z" fill="#C4C4C4" stroke="#EEEEEE" stroke-width="0.25" stroke-linecap="round" stroke-linejoin="round"/>
<path d="M19.8242 17.9873L19.4604 20.3457L19.6423 26.2673L20.5127 21.784L19.8242 17.9873Z" fill="#C4C4C4" stroke="#EEEEEE" stroke-width="0.25" stroke-linecap="round" stroke-linejoin="round"/>
<path d="M20.5125 21.7843L19.6421 26.2676L20.2657 26.7082L24.1241 23.702L24.241 20.6958L20.5125 21.7843Z" fill="white" stroke="white" stroke-width="0.25" stroke-linecap="round" stroke-linejoin="round"/>
<path d="M11.3926 20.6958L11.4966 23.702L15.3549 26.7082L15.9785 26.2676L15.1081 21.7843L11.3926 20.6958Z" fill="white" stroke="white" stroke-width="0.25" stroke-linecap="round" stroke-linejoin="round"/>
<path d="M20.5909 30.8417L20.6298 29.6107L20.2921 29.3256H15.3295L15.0047 29.6107L15.0307 30.8417L10.8735 28.8721L12.3285 30.0642L15.2775 32.0986H20.331L23.293 30.0642L24.735 28.8721L20.5909 30.8417Z" fill="#C4C4C4"/>
<path d="M20.2658 26.7081L19.6422 26.2676H15.9787L15.3552 26.7081L15.0044 29.6107L15.3292 29.3256H20.2918L20.6296 29.6107L20.2658 26.7081Z" fill="#F6F6F6" stroke="#F6F6F6" stroke-width="0.25" stroke-linecap="round" stroke-linejoin="round"/>
<path d="M33.517 11.3532L34.6213 5.98873L32.9584 1L20.2661 10.3944L25.1507 14.5149L32.049 16.5234L33.569 14.7482L32.9065 14.2687L33.9587 13.3099L33.1533 12.6879L34.2056 11.8845L33.517 11.3532Z" fill="#C4C4C4" stroke="#EEEEEE" stroke-width="0.25" stroke-linecap="round" stroke-linejoin="round"/>
<path d="M1 5.98873L2.11724 11.3532L1.40273 11.8845L2.468 12.6879L1.66255 13.3099L2.71483 14.2687L2.05228 14.7482L3.57225 16.5234L10.4706 14.5149L15.3552 10.3944L2.66287 1L1 5.98873Z" fill="#C4C4C4" stroke="#EEEEEE" stroke-width="0.25" stroke-linecap="round" stroke-linejoin="round"/>
<path d="M32.0491 16.5235L25.1508 14.5151L27.2294 17.6509L24.1245 23.7021L28.2297 23.6503H34.3615L32.0491 16.5235Z" fill="white" stroke="white" stroke-width="0.25" stroke-linecap="round" stroke-linejoin="round"/>
<path d="M10.4706 14.5151L3.57238 16.5235L1.27295 23.6503H7.39178L11.4969 23.7021L8.3921 17.6509L10.4706 14.5151Z" fill="white" stroke="white" stroke-width="0.25" stroke-linecap="round" stroke-linejoin="round"/>
<path d="M19.8241 17.9878L20.2658 10.3945L22.2664 4.99121H13.3545L15.3551 10.3945L15.7968 17.9878L15.9657 20.372L15.9787 26.2678H19.6422L19.6552 20.372L19.8241 17.9878Z" fill="#EEEEEE" stroke="white" stroke-width="0.25" stroke-linecap="round" stroke-linejoin="round"/>
</svg>
