<svg width="80" height="80" viewBox="0 0 80 80" fill="none" xmlns="http://www.w3.org/2000/svg">
<rect width="80" height="80" rx="16.875" fill="#16181E"/>
<path d="M50.651 55.9167C51.9125 54.2278 53.4026 51.5372 53.5151 48.1543C53.6334 44.6124 52.2082 41.2384 49.2787 38.1258C44.7911 33.3564 40.3266 28.7657 37.2892 25.6719C35.9896 24.3481 36.0011 22.2266 37.3127 20.9148C37.7974 20.4301 38.4532 20.1553 39.1387 20.1497C39.8241 20.144 40.4843 20.4079 40.977 20.8846C40.977 20.8846 46.9937 26.8078 48.5427 28.3197C48.5725 28.3488 48.6103 28.3685 48.6512 28.3763C48.6922 28.384 48.7345 28.3795 48.7729 28.3633C48.8113 28.3471 48.8441 28.32 48.8671 28.2852C48.8901 28.2505 48.9024 28.2097 48.9024 28.1681V22.6042C48.9024 22.4821 48.8777 22.3613 48.8298 22.249C48.782 22.1367 48.7119 22.0353 48.6239 21.9507L39.4889 13.1799C39.3679 13.0638 39.2065 12.9992 39.0388 13C38.871 13.0008 38.7102 13.0668 38.5903 13.1841L33.4892 18.1757C30.8028 20.9204 30.7587 25.2943 33.3887 28.0924C36.8442 31.768 41.649 36.8769 45.8548 41.3472C47.8902 43.5104 48.8868 45.7422 48.8172 47.9816C48.759 49.8363 47.9717 51.4539 47.2513 52.5577L44.0957 56.0488L42.8623 57.2849C40.8075 59.3437 37.4583 59.299 35.4594 57.1858L26.8075 48.0683C26.7799 48.0393 26.7443 48.0192 26.7051 48.0106C26.666 48.002 26.6252 48.0054 26.588 48.0202C26.5508 48.0351 26.5189 48.0608 26.4964 48.0939C26.4739 48.1271 26.4619 48.1662 26.4619 48.2063V53.9532C26.4617 54.2823 26.5905 54.5983 26.8208 54.8334C30.8074 58.9028 37.482 65.454 38.8253 66.7708C38.8901 66.8343 38.9768 66.8705 39.0675 66.872C39.1583 66.8736 39.2461 66.8403 39.3131 66.7791L47.4399 59.352L50.651 55.9167Z" fill="url(#paint0_linear_9_352)"/>
<path fill-rule="evenodd" clip-rule="evenodd" d="M56.8894 28.9323C57.0582 29.0487 57.2169 29.1792 57.3637 29.3223C64.8641 36.6238 66.3793 41.8739 66.379 48.7887C66.379 57.3368 57.798 65.4963 56.2388 66.9085C56.1731 66.9678 56.0877 67.0004 55.9993 67C55.9108 66.9995 55.8258 66.9659 55.7608 66.9059L47.5536 59.3521L47.5566 59.349L27.5104 39.5478C25.404 37.4668 21.8437 38.0331 20.5566 40.6987C18.6276 44.697 17.9444 48.483 18.5231 52.0109C19.1316 55.7185 21.4408 58.7773 23.221 60.6455C23.4179 60.8513 23.5279 61.1251 23.5282 61.41V66.6885C23.5283 66.7192 23.52 66.7493 23.5041 66.7756C23.4883 66.8018 23.4656 66.8232 23.4384 66.8375C23.4113 66.8517 23.3807 66.8583 23.3501 66.8564C23.3195 66.8545 23.29 66.8443 23.2648 66.8268C21.8517 65.8425 15.208 60.752 13.8896 52.8045C12.7376 45.858 15.2895 38.3979 21.4736 30.6314C21.7332 30.3053 22.3766 29.6417 22.8211 29.1913C22.8809 29.1306 22.9522 29.0825 23.0308 29.0496C23.1094 29.0167 23.1937 28.9998 23.2789 28.9998C23.3641 28.9998 23.4484 29.0167 23.527 29.0496C23.6056 29.0825 23.6769 29.1306 23.7367 29.1913C24.1283 29.5876 24.6743 30.1384 24.9628 30.4225L50.7627 55.919L50.7649 55.9166L52.8192 57.9447C53.2331 58.3537 53.7209 58.6867 54.2661 58.8904C55.8715 59.4902 57.0233 58.7611 58.1522 57.4063C58.1522 57.4063 60.0787 55.44 60.8946 51.9215C62.4043 45.4111 60.157 39.5408 56.8413 35.6388C56.6182 35.3756 56.496 35.0418 56.4964 34.6968V29.1402C56.4964 29.0945 56.5088 29.0496 56.5324 29.0105C56.556 28.9713 56.5898 28.9393 56.6302 28.9179C56.6707 28.8965 56.7162 28.8865 56.7618 28.8891C56.8075 28.8916 56.8516 28.9065 56.8894 28.9323Z" fill="url(#paint1_linear_9_352)"/>
<defs>
<linearGradient id="paint0_linear_9_352" x1="39.9919" y1="13" x2="39.9919" y2="66.8721" gradientUnits="userSpaceOnUse">
<stop stop-color="#937BFD"/>
<stop offset="0.489583" stop-color="#CA87FF"/>
<stop offset="1" stop-color="#FF9CAE"/>
</linearGradient>
<linearGradient id="paint1_linear_9_352" x1="39.9998" y1="28.8887" x2="39.9998" y2="67" gradientUnits="userSpaceOnUse">
<stop stop-color="#937BFD"/>
<stop offset="0.489583" stop-color="#CA87FF"/>
<stop offset="1" stop-color="#FF9CAE"/>
</linearGradient>
</defs>
</svg>
